<svg xmlns="http://www.w3.org/2000/svg" viewBox="0 0 760 500" role="img" aria-labelledby="title desc">
<title id="title">Real Output</title>
<desc id="desc">Line chart of FRED series OUTNFB, nonfarm business sector real output, over the last 10 years.</desc>
<rect width="100%" height="100%" fill="#ffffff"/>
<style>text{font-family:Helvetica Neue,Helvetica,Arial,sans-serif;fill:#1f2933}.title{font-size:25px;font-weight:700}.subtitle{font-size:13px;fill:#556171}.axis{font-size:13px;fill:#374151}.source{font-size:10.5px;fill:#4b5563}</style>
<text class="title" x="62" y="32">Real Output</text>
<text class="subtitle" x="62" y="53">Nonfarm business sector, index 2017 = 100</text>
<line x1="62" y1="422.0" x2="738" y2="422.0" stroke="#e5e7eb" stroke-width="1"/>
<text class="axis" x="52" y="426.0" text-anchor="end">96</text>
<line x1="62" y1="378.2" x2="738" y2="378.2" stroke="#e5e7eb" stroke-width="1"/>
<text class="axis" x="52" y="382.2" text-anchor="end">100</text>
<line x1="62" y1="334.5" x2="738" y2="334.5" stroke="#e5e7eb" stroke-width="1"/>
<text class="axis" x="52" y="338.5" text-anchor="end">104</text>
<line x1="62" y1="290.8" x2="738" y2="290.8" stroke="#e5e7eb" stroke-width="1"/>
<text class="axis" x="52" y="294.8" text-anchor="end">108</text>
<line x1="62" y1="247.0" x2="738" y2="247.0" stroke="#e5e7eb" stroke-width="1"/>
<text class="axis" x="52" y="251.0" text-anchor="end">112</text>
<line x1="62" y1="203.2" x2="738" y2="203.2" stroke="#e5e7eb" stroke-width="1"/>
<text class="axis" x="52" y="207.2" text-anchor="end">116</text>
<line x1="62" y1="159.5" x2="738" y2="159.5" stroke="#e5e7eb" stroke-width="1"/>
<text class="axis" x="52" y="163.5" text-anchor="end">120</text>
<line x1="62" y1="115.8" x2="738" y2="115.8" stroke="#e5e7eb" stroke-width="1"/>
<text class="axis" x="52" y="119.8" text-anchor="end">124</text>
<line x1="62" y1="72.0" x2="738" y2="72.0" stroke="#e5e7eb" stroke-width="1"/>
<text class="axis" x="52" y="76.0" text-anchor="end">128</text>
<line x1="62" y1="72" x2="62" y2="422" stroke="#4b5563" stroke-width="1.1"/>
<line x1="62" y1="422" x2="738" y2="422" stroke="#4b5563" stroke-width="1.1"/>
<line x1="62.0" y1="422" x2="62.0" y2="428" stroke="#4b5563" stroke-width="1"/>
<text class="axis" x="62.0" y="447" text-anchor="middle">2016</text>
<line x1="197.3" y1="422" x2="197.3" y2="428" stroke="#4b5563" stroke-width="1"/>
<text class="axis" x="197.3" y="447" text-anchor="middle">2018</text>
<line x1="332.4" y1="422" x2="332.4" y2="428" stroke="#4b5563" stroke-width="1"/>
<text class="axis" x="332.4" y="447" text-anchor="middle">2020</text>
<line x1="467.6" y1="422" x2="467.6" y2="428" stroke="#4b5563" stroke-width="1"/>
<text class="axis" x="467.6" y="447" text-anchor="middle">2022</text>
<line x1="602.7" y1="422" x2="602.7" y2="428" stroke="#4b5563" stroke-width="1"/>
<text class="axis" x="602.7" y="447" text-anchor="middle">2024</text>
<line x1="738.0" y1="422" x2="738.0" y2="428" stroke="#4b5563" stroke-width="1"/>
<text class="axis" x="738.0" y="447" text-anchor="middle">2026</text>
<polyline fill="none" stroke="#245c75" stroke-width="4" stroke-linecap="round" stroke-linejoin="round" points="62.0,419.0 78.8,415.7 95.7,406.9 112.7,398.7 129.7,393.2 146.4,385.8 163.2,374.5 180.2,359.5 197.3,349.4 213.9,343.7 230.8,335.5 247.8,333.9 264.8,324.0 281.5,313.3 298.3,296.9 315.3,288.7 332.4,310.7 349.2,420.8 366.0,316.4 383.1,300.6 400.1,280.0 416.7,256.3 433.6,245.6 450.6,220.1 467.6,227.1 484.3,227.4 501.1,218.4 518.2,208.8 535.2,199.9 551.8,190.7 568.7,173.5 585.7,161.7 602.7,161.0 619.6,148.1 636.4,135.5 653.4,129.8 670.5,132.9 687.1,115.8 704.0,97.9 721.0,93.3 738.0,88.3"/>
<text class="source" x="62" y="474">Source: FRED, Federal Reserve Bank of St. Louis, OUTNFB. Downloaded May 26, 2026.</text>
</svg>